<svg xmlns="http://www.w3.org/2000/svg" viewBox="0 0 200 65"><defs><style>.cls-1{fill:#fff;}.cls-2{fill:#c80000;}.cls-3{fill:#043566;}</style></defs><g id="Layer_2" data-name="Layer 2"><g id="Layer_1-2" data-name="Layer 1"><path class="cls-1" d="M200,65H0V0H200Z"/><path class="cls-2" d="M109,24.08h3.69l.23.31.22.29.8-.32a3.15,3.15,0,0,0,2.36,1.06,3.19,3.19,0,1,0-3.19-3.19c0,.05,0,.1,0,.16Z"/><path class="cls-3" d="M27,33.88q0-9.45,8.88-9.45a14.32,14.32,0,0,1,5.75,1.32v3.82a9.31,9.31,0,0,0-5.15-1.73,4.7,4.7,0,0,0-3.72,1.39c-.83.93-1.23,2.48-1.23,4.65s.42,3.7,1.25,4.6a5.09,5.09,0,0,0,3.89,1.36A7.87,7.87,0,0,0,39,39.43a11.29,11.29,0,0,0,2.6-1.27V42a11.74,11.74,0,0,1-2.71.93,14.48,14.48,0,0,1-3,.35Q27,43.25,27,33.88Z"/><path class="cls-3" d="M46.49,40.92c-1.56-1.57-2.33-3.92-2.33-7s.76-5.4,2.29-7A8.55,8.55,0,0,1,53,24.48a8.76,8.76,0,0,1,6.48,2.34q2.36,2.36,2.35,7c0,3.07-.77,5.41-2.29,7A8.63,8.63,0,0,1,53,43.28,8.69,8.69,0,0,1,46.49,40.92Zm9.69-2.6a7.22,7.22,0,0,0,1.09-4.47,7.16,7.16,0,0,0-1.08-4.45A3.86,3.86,0,0,0,53,28.06a3.84,3.84,0,0,0-3.21,1.35,7.36,7.36,0,0,0-1.07,4.5,7.17,7.17,0,0,0,1.07,4.42A3.83,3.83,0,0,0,53,39.67,3.88,3.88,0,0,0,56.18,38.32Z"/><path class="cls-3" d="M75.54,42.9,72,36.67H69.26V42.9H64.87V24.83h8.8a7.24,7.24,0,0,1,4.82,1.44,5.27,5.27,0,0,1,1.71,4.28,5.87,5.87,0,0,1-1,3.26,4.8,4.8,0,0,1-2.71,2l4.6,7.07Zm-.08-12.14a2.73,2.73,0,0,0-.59-1.89,2.26,2.26,0,0,0-1.74-.65H69.26v5.23h3.68C74.62,33.45,75.46,32.55,75.46,30.76Z"/><path class="cls-2" d="M75.45,46.34,79,43.65H75.47l-1.32,1a3.17,3.17,0,1,0,1.35,1.83C75.49,46.44,75.46,46.39,75.45,46.34Z"/><path class="cls-2" d="M119.74,46.21a4.26,4.26,0,0,0-4,.73l-4.41-3.29h-3.46v-2.6l-2.29-1.71a12.84,12.84,0,0,0,1.14-3.62l.14-2.12a12.42,12.42,0,0,0-.43-3.18,12.29,12.29,0,0,0-1-2.55l2.44-1v-2.3L104.28,26a12.87,12.87,0,0,0-4.74-3.84l4.76-7.38.27.1a4.27,4.27,0,1,0-2.07-1.25l-5,7.78a12.77,12.77,0,0,0-6.64-.05l-1.6-8.48a2,2,0,0,0,.26-.11,4.25,4.25,0,1,0-2.34.53l1.66,8.79a12.75,12.75,0,0,0-5.39,4.63l-6.38-5.05a3.18,3.18,0,1,0-1.45,1.76l.13-.09,1.87,1.48A5.92,5.92,0,0,1,79,25.7a4.46,4.46,0,0,1,.86.93l2.57,2a13,13,0,0,0-1,3.3l-.11,2.12a13,13,0,0,0,.43,3,10.49,10.49,0,0,0,.46,1.37L80.16,40l1.16,1.79,1.89-1.44a12.66,12.66,0,0,0,3.91,4l-2,3.2A3.17,3.17,0,1,0,87,48.88l-.1-.12L89,45.44l.6-3.12A3.18,3.18,0,0,0,89.1,40a6.29,6.29,0,0,1-.84-1.91c-.2-.77-.38-1.57-.53-2.36L87,32.06a1,1,0,0,1,.46-1.18c.51-.27,1.08.32,1.26.75a16.14,16.14,0,0,0,.7,2.28,1.43,1.43,0,0,0,.87.79c.58.11.6-.36.66-.86.17-2.25.3-4.48.43-6.75a2.59,2.59,0,0,1,.09-1c.14-.3.22-.72.81-.65a.7.7,0,0,1,.68.79c-.08,1.77-.15,3.53-.23,5.3a.48.48,0,0,0,.44.45h.12c.22,0,.33-.12.37-.33.13-.7.27-1.4.4-2.07l.75-3.89a2.22,2.22,0,0,1,.17-.66c.12-.23.17-.29.33-.33a1.17,1.17,0,0,1,.93.29.48.48,0,0,1,.11.42c-.16,1.2-.43,2.42-.67,3.61-.17.88-.31,1.83-.52,2.7-.07.39-.1.53.18.62a.45.45,0,0,0,.55-.29c.45-1.73.94-3.46,1.43-5.18.14-.52.3-1,1-.83s.64.59.5,1.11c-.47,1.84-.9,3.65-1.4,5.44v0a.48.48,0,0,0,.9.29c.36-.88.73-1.82,1.1-2.73a2.38,2.38,0,0,1,.37-.73,1,1,0,0,1,.77-.25.87.87,0,0,1,.5.71,2.62,2.62,0,0,1-.4,1.12,32.35,32.35,0,0,0-1.85,7c-.3,2.71-2.2,4.12-2.34,4.64-.21.9-.62,2.94-1,4.92l1,5.56-.27.11a4.26,4.26,0,1,0,2.35-.51l-1.18-6.55.16,0a12.72,12.72,0,0,0,7-4.9l10,7.47a2.21,2.21,0,0,0-.12.27,4.25,4.25,0,1,0,5.38-2.71Z"/><path class="cls-3" d="M124.38,24.83V42.9h-3.31l-8.42-11v11h-4V24.83h3.73l8,10.75V24.83Z"/><path class="cls-2" d="M138.92,37.26h-7.8L129,42.9h-2.11l7.21-18.07H136l7.18,18.07h-2.08Zm-.73-1.87L135,27.14l-3.17,8.25Z"/><path class="cls-2" d="M155.85,30.89q1.78,1.74,1.78,5.59a7,7,0,0,1-1.68,5,6.17,6.17,0,0,1-4.76,1.82,7.58,7.58,0,0,1-1.63-.22,11.31,11.31,0,0,1-1.73-.57v6.28h-2v-17a2.11,2.11,0,0,1,1.64-2.07,11.87,11.87,0,0,1,3.83-.61A6.18,6.18,0,0,1,155.85,30.89Zm-1.4,9.24a5.53,5.53,0,0,0,1.12-3.65,7.64,7.64,0,0,0-.92-4,3.58,3.58,0,0,0-3.33-1.5,7.82,7.82,0,0,0-2.48.34c-.67.22-1,.52-1,.9v8.37a6.59,6.59,0,0,0,3.36,1A4,4,0,0,0,154.45,40.13Z"/><path class="cls-2" d="M171.25,30.89Q173,32.63,173,36.48a7,7,0,0,1-1.68,5,6.18,6.18,0,0,1-4.77,1.82,7.42,7.42,0,0,1-1.62-.22,11.82,11.82,0,0,1-1.74-.57v6.28h-1.94v-17a2.11,2.11,0,0,1,1.63-2.07,11.94,11.94,0,0,1,3.84-.61A6.14,6.14,0,0,1,171.25,30.89Zm-1.39,9.24A5.53,5.53,0,0,0,171,36.48a7.74,7.74,0,0,0-.92-4,3.58,3.58,0,0,0-3.33-1.5,7.78,7.78,0,0,0-2.48.34q-1,.33-1,.9v8.37a6.64,6.64,0,0,0,3.36,1A4,4,0,0,0,169.86,40.13Z"/><path class="cls-2" d="M175.41,31.64a4,4,0,0,1-1.5-1.49,4.1,4.1,0,0,1,0-4.1,4.15,4.15,0,0,1,1.5-1.5,4.11,4.11,0,0,1,4.11,0,4.15,4.15,0,0,1,1.5,1.5,4.08,4.08,0,0,1-1.5,5.59,4.05,4.05,0,0,1-4.11,0Zm3.9-.36a3.64,3.64,0,0,0,1.33-1.34,3.55,3.55,0,0,0,.5-1.84,3.68,3.68,0,0,0-3.68-3.68,3.54,3.54,0,0,0-1.83.5,3.74,3.74,0,0,0-1.34,1.34,3.61,3.61,0,0,0-.5,1.84,3.55,3.55,0,0,0,.5,1.84,3.74,3.74,0,0,0,1.34,1.34,3.54,3.54,0,0,0,1.83.5A3.62,3.62,0,0,0,179.31,31.28Zm-3.9-3.18q0-2.4,2.16-2.4A3.79,3.79,0,0,1,179,26v.48a3.45,3.45,0,0,0-1.37-.27,1.66,1.66,0,0,0-1.3.47,2.09,2.09,0,0,0-.41,1.45,2.12,2.12,0,0,0,.41,1.46,1.66,1.66,0,0,0,1.3.46,3.6,3.6,0,0,0,1.37-.27v.48a4,4,0,0,1-1.43.26C176.13,30.49,175.41,29.7,175.41,28.1Z"/></g></g></svg>